# xmcd
#
# Track frame offsets:
#	150
#	23353
#	65258
#	80963
#	104874
#	121115
#	134320
#	155134
#	182979
#	198504
#	211576
#
# Disc length: 3237 seconds
#
# Revision: 0
# Processed by: cddbd v1.5.2PL0 Copyright (c) Steve Scherf et al.
# Submitted via: EasyCDDAExtractor 8.2.3.1
#
DISCID=9a0ca30b
DTITLE=Alberta Adams - Born with The Blues
DYEAR=1999
DGENRE=Blues
TTITLE0=Tell You Like It Is
TTITLE1=Blues Mood
TTITLE2=He May Be Your Man
TTITLE3=Pair And A Spared
TTITLE4=Goin' Home Tomorrow
TTITLE5=Born With The Blues
TTITLE6=I'm Just A Lucky So And So
TTITLE7=Messin' Around With The Blues
TTITLE8=Half A Man
TTITLE9=I Can Be Good
TTITLE10=Searchin'
EXTD=
EXTT0=
EXTT1=
EXTT2=
EXTT3=
EXTT4=
EXTT5=
EXTT6=
EXTT7=
EXTT8=
EXTT9=
EXTT10=
PLAYORDER=
